<svg xmlns="http://www.w3.org/2000/svg" version="1.1" xmlns:xlink="http://www.w3.org/1999/xlink" xmlns:svgjs="http://svgjs.dev/svgjs" viewBox="0 0 8.011476632322656 8.011476632322656"><g transform="matrix(1,0,0,1,2.651256002510153,2.686900273922026)"><g><path d=" M -0.7748160235870779 0.29340744434233423 Q -0.8651997461506769 0.3320601634646208 -0.9623146041303443 0.2822033248204687 L -0.8567871498164288 0.10180111755563381 Q -0.8233351688033156 0.11789350601410448 -0.7990679001168726 0.11007687819259587 Q -0.7748006314304297 0.10226025037108727 -0.7596531499499632 0.07636519669670905 Q -0.7460204166175435 0.05305964838976868 -0.7488371599074084 0.03113783374683815 Q -0.7516539031972732 0.00921601910390768 -0.7723699461367758 -0.0029019660804654457 Q -0.7991281682669666 -0.018554363610280622 -0.8284445974468984 -0.0021060512306459445 Q -0.8577610266268302 0.014342261148988733 -0.908707107406572 0.059844973740481755 Q -0.9633991892953346 0.10779052805652745 -1.003416243192633 0.13361949236756238 Q -1.0434332970899314 0.1594484566785973 -1.095159643560644 0.16568424698871598 Q -1.146885990031357 0.17192003729883465 -1.2047182765708018 0.13809066199245984 Q -1.2634137315660592 0.1037563706367361 -1.2881102559951088 0.049920214745686864 Q -1.3128067804241583 -0.003915941145362423 -1.3040910288585408 -0.06832894972784082 Q -1.2953752772929232 -0.1327419583103192 -1.2570016575424083 -0.19834276095207737 Q -1.1948969834724963 -0.3045124810170281 -1.1081534676361289 -0.33892268968169414 Q -1.0214099517997615 -0.3733328983463603 -0.9291158521485059 -0.32513747149314 L -1.0366629706598172 -0.14128259040505464 Q -1.0647892772951693 -0.15657673552840612 -1.0879409195011251 -0.14868677588545498 Q -1.1110925617070813 -0.14079681624250373 -1.1257351271381988 -0.11576493102393814 Q -1.1368432802238742 -0.09677522499606084 -1.1326909149891944 -0.07812695797314895 Q -1.1285385497545148 -0.059478690950236945 -1.1078225068150123 -0.04736070576586393 Q -1.0905591376987602 -0.037262384778886326 -1.0702169963245698 -0.04332021312842299 Q -1.0498748549503794 -0.049378041477959655 -1.0291985170293227 -0.06392929744348641 Q -1.0085221791082661 -0.07848055340901317 -0.9719902615945649 -0.10924447713099839 Q -0.9183080118045001 -0.15546369453541897 -0.8769228734020402 -0.18165091125291755 Q -0.8355377349995803 -0.20783812797041623 -0.78467455698468 -0.21457883432988378 Q -0.7338113789697798 -0.22131954068935134 -0.6802949347093982 -0.19001474562972098 Q -0.6259153219932039 -0.15820503452074153 -0.5986617547570632 -0.10576942569520054 Q -0.5714081875209225 -0.053333816869659434 -0.5764188072386152 0.01266727168230819 Q -0.5814294269563078 0.07866836023427576 -0.6223276269535669 0.14858500515509698 Q -0.684432301023479 0.25475472522004766 -0.7748160235870779 0.29340744434233423 Z M -0.33116374932369774 -0.3195955863943286 Q -0.42417898232798135 -0.299610180990414 -0.5151101228928264 -0.3294435126108748 Q -0.6060412634576715 -0.35927684423133555 -0.6747981408232627 -0.4373056326041731 Q -0.7435550181888538 -0.5153344209770105 -0.7617093080598024 -0.6092967632173016 Q -0.779863597930751 -0.7032591054575926 -0.7480023183525941 -0.7926451159046559 Q -0.7161410387744371 -0.8820311263517193 -0.6418636344579861 -0.9474823846131954 Q -0.5668359533302577 -1.0135947666954948 -0.4745264206420242 -1.0336247485946366 Q -0.38221688795379066 -1.0536547304937782 -0.29166088579458427 -1.0234908369629059 Q -0.20110488363537776 -0.9933269434320336 -0.1323480062697866 -0.9152981550591961 Q -0.06359112890419549 -0.8372693666863587 -0.04506170062760828 -0.7436375863564791 Q -0.02653227235102107 -0.6500058060265996 -0.05806299001876647 -0.5602446571738977 Q -0.08959370768651187 -0.4704835083211956 -0.163871112002963 -0.40503225005971943 Q -0.23814851631941406 -0.33958099179824325 -0.33116374932369774 -0.3195955863943286 Z M -0.227682912476716 -0.6566893662322965 Q -0.22744093840648075 -0.7222118161906835 -0.2816530917139661 -0.7837345147154208 Q -0.3371874926630974 -0.8467577668627126 -0.40188903926357433 -0.8543873060038607 Q -0.4665905858640513 -0.8620168451450088 -0.5228613467098475 -0.8124325585832844 Q -0.5798823843669211 -0.7621871482007371 -0.5800797819419292 -0.6973703985584001 Q -0.5802771795169372 -0.6325536489160632 -0.5247427785678059 -0.5695303967687715 Q -0.4698695014394977 -0.507257421432757 -0.4055430932446593 -0.4992973203811973 Q -0.34121668504982106 -0.4913372193296377 -0.2841956473927475 -0.5415826297121851 Q -0.2279248865469512 -0.5911669162739095 -0.227682912476716 -0.6566893662322965 Z M 0.5456343041144383 -0.8403077944486241 L 0.31650751698173285 -1.0265896116456976 L 0.2971183945497813 -1.0185235139944915 L 0.3969843654694763 -0.7784677124560438 L 0.21601922277126182 -0.7031841343781199 L -0.054771198376372704 -1.354104673165065 L 0.23052588883662872 -1.4727915386042407 Q 0.3090056701088136 -1.505440029097218 0.37481081792765747 -1.500864821939056 Q 0.4406159657465014 -1.4962896147808933 0.4880958563177234 -1.4602630968899732 Q 0.5355757468889455 -1.4242365789990532 0.5601581397307165 -1.3651459201588199 Q 0.587813331677709 -1.2986689289635576 0.5722767595790732 -1.2331775942128909 Q 0.5567401874804374 -1.167686259462224 0.49540432753517183 -1.117258962441912 L 0.7478351523333615 -0.9244256699540596 L 0.5456343041144383 -0.8403077944486241 Z M 0.2456490095373231 -1.14224458094123 L 0.3352082893420517 -1.1795022700920392 Q 0.3721399511171975 -1.1948662656181464 0.3833078841298696 -1.220090802724394 Q 0.39447581714254176 -1.2453153398306416 0.3806482211690455 -1.2785538354282728 Q 0.36758882497185463 -1.3099457479371468 0.34117140049311523 -1.3200758853454007 Q 0.31475397601437594 -1.3302060227536545 0.27874560578360874 -1.3152261271157002 L 0.18918632597888016 -1.277968437964891 L 0.2456490095373231 -1.14224458094123 Z M 1.319927198983501 -1.7036326362598855 L 1.3364120147387544 -1.5485060722886708 L 1.149464617132419 -1.528639755865673 L 1.207478487963407 -0.9827135788131292 L 1.0125758819482913 -0.9620018872231952 L 0.954562011117303 -1.507928064275739 L 0.7696034156131625 -1.4882730916444755 L 0.753118599857909 -1.6433996556156902 L 1.319927198983501 -1.7036326362598855 Z M 1.7700254242133944 -1.663143065358318 L 1.6955042308894965 -0.9620927164206812 L 1.5006022899082527 -0.9828106652029279 L 1.5751234832321508 -1.6838610141405645 L 1.7700254242133944 -1.663143065358318 Z M 2.179307144044751 -0.8342550458050946 L 2.1311249541215065 -1.1255941550475723 L 2.1112583580797835 -1.132399914499315 L 2.0269965743915397 -0.8864325349351224 L 1.8415750113354559 -0.9499529564847217 L 2.070054078643963 -1.6169029664568595 L 2.362376848972177 -1.5167610773812157 Q 2.442789261522009 -1.4892139557908282 2.4890444645046403 -1.442185175272559 Q 2.535299667487272 -1.3951563947542893 2.546990204129507 -1.3367134195304307 Q 2.558680740771743 -1.278270444306572 2.537939378633098 -1.2177246277984632 Q 2.514605346227123 -1.1496105842268407 2.4595746589048346 -1.1108533468015989 Q 2.4045439715825467 -1.072096109376357 2.325191887460592 -1.0749678241083958 L 2.386487359908436 -0.7632806972369199 L 2.179307144044751 -0.8342550458050946 Z M 2.1546855850575706 -1.2591677178131682 L 2.2464503382026733 -1.227731590821785 Q 2.2842914735202413 -1.214768239485132 2.3093696330639357 -1.2262611030926505 Q 2.3344477926076297 -1.237753966700169 2.346114808810617 -1.27181098848598 Q 2.3571336574467723 -1.303975953505913 2.344059709373137 -1.329067224533262 Q 2.3309857612995017 -1.3541584955606112 2.2940906543648727 -1.3667977631138477 L 2.20232590121977 -1.3982338901052311 L 2.1546855850575706 -1.2591677178131682 Z M 2.5042146347846472 -0.7033462987312094 Q 2.4923652235661367 -0.7441395757971013 2.515463212119926 -0.7815893144446405 Q 2.538561200673716 -0.8190390530921798 2.5805954832977474 -0.8271857753952312 Q 2.622629765921779 -0.8353324976982827 2.66688854795978 -0.8080348748619857 Q 2.7102961995739734 -0.7812622063110021 2.7218831336498277 -0.7400433640332063 Q 2.7334700677256816 -0.6988245217554104 2.710372079171892 -0.6613747831078711 Q 2.6877990449034157 -0.6247761748841396 2.6457647622793843 -0.6166294525810881 Q 2.6037304796553524 -0.6084827302780368 2.5603228280411594 -0.6352553988290204 Q 2.5160640460031582 -0.6625530216653173 2.5042146347846472 -0.7033462987312094 Z M 3.5984225287015374 -0.7021228424719091 L 3.4916783038330212 -0.5883613795012718 L 3.286032582309177 -0.7813220936866659 L 3.2011846086957414 -0.6908963154279542 L 3.3528665593232576 -0.5485706822699329 L 3.2509121394167906 -0.4399139003300292 L 3.0992301887892744 -0.5822395334880505 L 2.9103750217142075 -0.380969252847692 L 2.767443952853663 -0.5150837917850581 L 3.2498457383171484 -1.0291980955946696 L 3.5984225287015374 -0.7021228424719091 Z M 3.375276602411813 0.2086415329983765 L 3.5267655204621033 -0.044836489141517055 L 3.516001614707333 -0.06286808177507064 L 3.292753324958574 0.07039932280779901 L 3.192290204580719 -0.0978955417720345 L 3.7976365287071605 -0.45925523496789256 L 3.956019713384494 -0.19393322907417543 Q 3.9995879033442785 -0.12094821127169658 4.0044992584319745 -0.055167297693345 Q 4.0094106135196705 0.010613615885006589 3.980567287425151 0.0627702313791626 Q 3.951723961330632 0.11492684687331856 3.8967705361617067 0.14773113107833258 Q 3.834947932846666 0.18463595080897344 3.767905262568471 0.17865428198085964 Q 3.700862592290276 0.1726726131527459 3.642158617626739 0.11920446040082411 L 3.4875287624258453 0.39668528474829257 L 3.375276602411813 0.2086415329983765 Z M 3.63106034865477 -0.1315520518293188 L 3.6807793419029946 -0.048263266807666516 Q 3.7012820195311287 -0.013917376077088262 3.72784765644222 -0.0064832025851626895 Q 3.754413293353312 0.0009509709067629379 3.785324595010832 -0.017501438958557464 Q 3.8145186021318236 -0.034928714942471184 3.820754601578562 -0.06252603928560785 Q 3.8269906010253 -0.0901233636287444 3.80700049033787 -0.1236106070910582 L 3.7572814970896453 -0.2068993921127105 L 3.63106034865477 -0.1315520518293188 Z" fill="#390c14" fill-rule="nonzero"></path></g><g><path d=" M -0.8858001595057899 2.0769868337190944 L -1.1074133519862035 2.161756757784633 L -1.021344271996289 2.3867663210310295 L -1.0705916481030477 2.4056040819344826 L -1.1566607280929622 2.1805945186880855 L -1.3816702913393593 2.266663598678 L -1.2858575419166243 2.517145942669272 L -1.3351049180233827 2.5359837035727253 L -1.4536528961226989 2.2260648711767446 L -0.8592880120756126 1.9987125844109326 L -0.7407400339762964 2.3086314168069135 L -0.789987410083055 2.327469177710366 L -0.8858001595057899 2.0769868337190944 Z M -0.39075427084381 2.8595139974255015 L -1.0505944711107091 3.022150338792448 L -1.0919011326742332 2.9622920402130233 L -0.7057175652656814 2.4030944707573862 L -0.6664762367803335 2.45995985440784 L -1.0143824182420174 2.952979861017388 L -0.4289629327900698 2.8041450712395335 L -0.39075427084381 2.8595139974255015 Z M -0.2869990711930984 3.021540016386946 L -0.4448876967698333 3.198654468143226 L -0.2650588472854877 3.358962842770945 L -0.30014520852476206 3.3983216098278963 L -0.4799740580091077 3.238013235200177 L -0.6402824326368269 3.4178420846845228 L -0.4400956001919894 3.5962985771946254 L -0.4751819614312638 3.6356573442515763 L -0.7228707541172493 3.414855243349246 L -0.2994146701949719 2.939835640937767 L -0.051725877508986384 3.1606377418400973 L -0.08681223874826083 3.1999965088970486 L -0.2869990711930984 3.021540016386946 Z M 0.1954969440177194 4.038899825585382 L 0.13917149946401564 4.009285115175062 L 0.07653582344951759 3.3724243390840347 L -0.17222774399717505 3.8455580733351464 L -0.2285531885508788 3.8159433629248256 L 0.0671708482607507 3.253493566595698 L 0.12349629281445446 3.283108277006019 L 0.18655503612052854 3.9191644038891353 L 0.43489553627564514 3.4468353188459337 L 0.49122098082934884 3.4764500292562546 L 0.1954969440177194 4.038899825585382 Z M 1.0148560928990247 3.614683316565489 L 1.002491966762123 3.665940449475231 L 0.8310456946157437 3.62458457929318 L 0.694400783344123 4.191064272312918 L 0.6325387263840893 4.176142051113209 L 0.76918363765571 3.6096623580934715 L 0.5968536218384731 3.5680933133228536 L 0.6092177479753749 3.516836180413111 L 1.0148560928990247 3.614683316565489 Z M 1.2148403367169904 4.248863793629258 Q 1.1673744211033252 4.226482719598034 1.1405658861249117 4.187072019543893 Q 1.1137573511464982 4.147661319489752 1.112509089803071 4.099461368949858 L 1.1797771128021086 4.100256929451452 Q 1.1837739577941884 4.146671077768464 1.2197211448300012 4.182098662978284 Q 1.255668331865814 4.217526248188104 1.325663436878326 4.218354061142465 Q 1.3902043778638893 4.2191173691912915 1.428321417225622 4.186384030290633 Q 1.4664384565873547 4.1536506913899744 1.4670405023723447 4.102745160471784 Q 1.4675242891638542 4.0618389302696665 1.4469123078775836 4.036593409674934 Q 1.4263003265913128 4.011347889080202 1.3955385331427212 3.9987104922215373 Q 1.36477673969413 3.9860730953628725 1.3104071125060657 3.9708836089023287 Q 1.2469794643925205 3.9528595322524196 1.2099028582583062 3.9360562566504194 Q 1.172826252124092 3.919252981048419 1.1468729903955577 3.884398168500992 Q 1.1209197286670236 3.849543355953564 1.1216185318103153 3.79045657899495 Q 1.122199075960127 3.741369102752409 1.1481087511667591 3.7030364637873485 Q 1.1740184263733913 3.664703824822288 1.2206368402245964 3.643435460411536 Q 1.2672552540758013 3.622167096000785 1.3272510583722401 3.6228766499616656 Q 1.415426710141249 3.6239194792678084 1.469003172906344 3.6677379514610395 Q 1.522579635671439 3.711556423654271 1.5299545703926798 3.779830231349435 L 1.4608684927179925 3.7790131692126634 Q 1.4549675865095502 3.739849737963072 1.4189666453857919 3.708967289442376 Q 1.3829657042620336 3.67808484092168 1.321151845289945 3.6773537853256206 Q 1.2638831230069805 3.6766764838175074 1.2253438224291027 3.7066773652958966 Q 1.1868045218512246 3.7366782467742863 1.1861809744310565 3.7894018323681267 Q 1.185707938457136 3.829399035232419 1.2063252951522014 3.854190042158239 Q 1.2269426518472666 3.878981049084059 1.258153583555976 3.8920783350204307 Q 1.2893645152646853 3.9051756209568023 1.3428251151149246 3.920354356599757 Q 1.4044347085528202 3.9383569316144875 1.4424149666160648 3.9556254717029895 Q 1.4803952246793093 3.972894011791491 1.5063484864078434 4.007748824338919 Q 1.5323017481363777 4.042603636886346 1.531613695810675 4.100781386507136 Q 1.531086905748809 4.145323726060552 1.5069791589914427 4.185041407667528 Q 1.4828714122340765 4.224759089274504 1.4362207459301044 4.248754535698731 Q 1.389570079626132 4.272749982122956 1.325029138640569 4.27198667407413 Q 1.2623062523306556 4.271244867660482 1.2148403367169904 4.248863793629258 Z M 2.3297645987908195 3.715344104823851 L 2.34716628235568 3.766079111606552 L 2.0126592037375324 3.8808122456189333 L 1.9952575201726725 3.8300772388362323 L 2.3297645987908195 3.715344104823851 Z M 2.9185936770187073 3.0315644483289557 L 2.950799948888625 3.0733127577737362 L 2.7291020297680646 3.2443391670139867 L 2.8740302531826925 3.4322065595155005 L 3.061177847245503 3.287833616650354 L 3.09338411911542 3.3295819260951345 L 2.9062365250526097 3.473954868960281 L 3.085036861985599 3.705729966222685 L 3.0346509712763807 3.744599604686378 L 2.646509867188929 3.241460496032899 L 2.9185936770187073 3.0315644483289557 Z M 3.052294110021343 2.896228213426891 L 3.3641735252064344 3.1466902472440053 Q 3.4378904778865467 3.2058903643280505 3.501508299325642 3.1992655248716724 Q 3.5651261207647367 3.192640685415294 3.6140800637380814 3.1316824360836626 Q 3.6630340067114266 3.070724186752031 3.6555553194124903 3.0081695905919763 Q 3.648076632113554 2.9456149944319217 3.573650862580748 2.8858456454528376 L 3.2617714473956565 2.6353836116357234 L 3.301617680048379 2.585766431947186 L 3.612788278380777 2.8356592338692614 Q 3.707060919788998 2.9113670759094346 3.714420800319213 2.9994772009919246 Q 3.7217806808494283 3.0875873260744147 3.6574574767100327 3.1676836304287677 Q 3.5931342725706377 3.2477799347831207 3.5055126948399384 3.259612985930399 Q 3.417891117109239 3.2714460370776766 3.3236184757010183 3.1957381950375034 L 3.01244787736862 2.9458453931154285 L 3.052294110021343 2.896228213426891 Z M 4.160911480176869 2.2493962217843286 L 4.136046059422015 2.3079735008910225 L 3.5065266601810876 2.422952638182967 L 3.9985758046773183 2.631822172523746 L 3.9737103839224637 2.6903994516304404 L 3.388774411128475 2.4421004643783917 L 3.4136398318833296 2.3835231852716974 L 4.042322412851305 2.268188827683255 L 3.551110086628026 2.0596745136389742 L 3.5759755073828807 2.00109723453228 L 4.160911480176869 2.2493962217843286 Z" fill="#a5497e" fill-rule="nonzero"></path></g><g clip-path="url(&quot;#SvgjsClipPath1018&quot;)"><g clip-path="url(&quot;#SvgjsClipPath1008&quot;)"><path d=" M 2.6547615719086948 1.5178518909555931 C 2.654723797962704 1.4999218379039867 2.6475648647267245 1.482741163225539 2.6348596642778084 1.4700894395936654 C 2.6221544638288936 1.457437715961792 2.60494374626195 1.4503513129027796 2.587013693378529 1.4503891665967215 L 0.1211905228003683 1.4503891665967215 C 0.09708841230661826 1.4503891658837629 0.07481714347870226 1.4632474883533468 0.06276608802909692 1.4841205282087075 C 0.05071503257949159 1.504993568064068 0.05071503258518946 1.530710213878348 0.0627660880440442 1.5515832537283683 C 0.07481714350289895 1.5724562935783888 0.09708841233651286 1.585314616038104 0.12119052283026288 1.5853146153144648 L 2.5870136933785286 1.5853146153144648 C 2.6049437462619496 1.585352469008407 2.622154463828893 1.5782660659493941 2.6348596642778084 1.565614342317521 C 2.6475648647267245 1.5529626186856478 2.654723797962704 1.5357819440071998 2.6547615719086948 1.5178518909555931 Z" fill="url(#iconColor_0)" transform="matrix(1,0,0,1,0,0)" fill-rule="nonzero"></path></g><g clip-path="url(&quot;#SvgjsClipPath1008&quot;)"><path d=" M 2.61412710249916 1.780930376822824 C 2.614089328553169 1.7630003237712177 2.606930395317189 1.74581964909277 2.5942251948682737 1.7331679254608967 C 2.581519994419358 1.720516201829023 2.5643092768524154 1.7134297987700107 2.5463792239689935 1.7134676524639523 L 0.1617537036670798 1.7134676524639523 C 0.1376515931733298 1.713467651750994 0.11538032434541379 1.7263259742205777 0.10332926889580844 1.7471990140759384 C 0.09127821344620313 1.768072053931299 0.09127821345190099 1.7937886997455788 0.10332926891075574 1.814661739595599 C 0.11538032436961047 1.8355347794456198 0.1376515932032244 1.8483931019053348 0.16175370369697442 1.8483931011816956 L 2.5463792239689935 1.8483931011816956 C 2.564309276852415 1.8484309548756375 2.581519994419358 1.8413445518166252 2.5942251948682737 1.8286928281847514 C 2.606930395317189 1.8160411045528781 2.614089328553169 1.7988604298744306 2.6141271024991606 1.780930376822824 Z" fill="url(#iconColor_1)" transform="matrix(1,0,0,1,0,0)" fill-rule="nonzero"></path></g><g clip-path="url(&quot;#SvgjsClipPath1008&quot;)"><path d=" M 2.50572099171185 2.044032625537663 C 2.5056895128562506 2.0261047533631977 2.4985358601750702 2.0089240191961246 2.4858344328171955 1.9962716148912085 C 2.4731330054593204 1.9836192105862926 2.455924735884394 1.9765320509691222 2.4379968760292954 1.9765699011787912 L 0.27015981445438964 1.9765699011787912 C 0.2460577039606396 1.9765699004658326 0.22378643513272362 1.9894282229354165 0.21173537968311829 2.0103012627907773 C 0.19968432423351293 2.031174302646138 0.19968432423921081 2.0568909484604174 0.21173537969806555 2.077763988310438 C 0.22378643515692032 2.0986370281604585 0.2460577039905342 2.1114953506201735 0.2701598144842842 2.1114953498965345 L 2.438068164572115 2.1114953498965345 C 2.475373893767386 2.1115347595705853 2.505655425766359 2.0813383179319893 2.50572099171185 2.044032625537663 Z" fill="url(#iconColor_2)" transform="matrix(1,0,0,1,0,0)" fill-rule="nonzero"></path></g><g clip-path="url(&quot;#SvgjsClipPath1008&quot;)"><path d=" M 2.2821601214165823 2.3071348742525015 C 2.282128642560983 2.2892070020780366 2.2749749898798024 2.2720262679109635 2.2622735625219277 2.2593738636060476 C 2.2495721351640525 2.2467214593011318 2.232363865589126 2.239634299683961 2.2144360057340275 2.23967214989363 L 0.49369692190204933 2.23967214989363 C 0.4692972863613287 2.239214157764612 0.4465525200753213 2.251969108300888 0.43421857425846466 2.273026785093381 C 0.421884628441608 2.2940844618858733 0.421884628441608 2.3201615237715223 0.4342185742584648 2.3412192005640144 C 0.4465525200753213 2.362276877356507 0.4692972863613288 2.3750318278927836 0.4936969219020495 2.3745738357637656 L 2.2144360057340235 2.3745738357637656 C 2.2323597563226527 2.374611689471746 2.249564429724453 2.3675277899958123 2.2622651737780384 2.3548805227592946 C 2.274965917831624 2.3422332555227765 2.2821223474845937 2.3250586250094343 2.282160121416583 2.3071348742525015 Z" fill="url(#iconColor_3)" transform="matrix(1,0,0,1,0,0)" fill-rule="nonzero"></path></g><g clip-path="url(&quot;#SvgjsClipPath1008&quot;)"><path d=" M 1.8215173205371433 2.5702133601197326 C 1.8214795465911522 2.552283307068126 1.8143206133551726 2.5351026323896786 1.801615412906257 2.5224509087578055 C 1.7889102124573417 2.5097991851259316 1.7716994948903984 2.502712782066919 1.7537694420069772 2.5027506357608607 L 0.9543634856290965 2.5027506357608607 C 0.9302613751353463 2.502750635047902 0.9079901063074304 2.5156089575174865 0.8959390508578249 2.536481997372847 C 0.8838879954082196 2.5573550372282075 0.8838879954139175 2.5830716830424874 0.8959390508727723 2.603944722892508 C 0.9079901063316268 2.6248177627425284 0.9302613751652408 2.637676085202243 0.9543634856589909 2.6376760844786045 L 1.753698153464153 2.6376760844786045 C 1.7716405408187428 2.6377328842243823 1.7888695834701442 2.6306548525038234 1.8015902152021248 2.6180010776309803 C 1.8143108469341058 2.6053473027581373 1.821479570419313 2.588155797666562 1.8215173205371438 2.5702133601197326 Z" fill="url(#iconColor_4)" transform="matrix(1,0,0,1,0,0)" fill-rule="nonzero"></path></g><g clip-path="url(&quot;#SvgjsClipPath1008&quot;)"><path d=" M 0 1.315463717878978 L 2.7089646273023504 1.315463717878978 C 2.6876984348045583 0.5827052608867191 2.087549300520066 -0.0002789768910240063 1.3544823136511768 -0.00027897689102485053 C 0.6214153267822876 -0.00027897689102569475 0.021266192497794028 0.582705260886716 1.6884518748778528e-16 1.3154637178789768 Z" fill="url(#iconColor_5)" transform="matrix(1,0,0,1,0,0)" fill-rule="nonzero"></path></g></g><g><path d=" M -2.0086329498165987 1.3188380422393022 A 3.363115263467774 3.363115263467774 0 0 1 4.71759757711895 1.3188380422393022 A 3.363115263467774 3.363115263467774 0 0 1 -2.0086329498165982 1.3188380422393022 Z M -1.9586329498165989 1.3188380422393022 A 3.313115263467774 3.313115263467774 0 0 0 4.667597577118949 1.3188380422393022 A 3.313115263467774 3.313115263467774 0 0 0 -1.9586329498165993 1.3188380422393022 Z" fill="#390c14" fill-rule="nonzero"></path></g><g transform="matrix(0.08956241961613405,-0.9959812111643992,0.9959812111643992,0.08956241961613405,-2.32730178510647,-0.2531649975677488)"><g clip-path="url(&quot;#SvgjsClipPath1019&quot;)"><path d=" M -1.3021269321712647 1.3371121795019318 C -1.193690305353083 1.3371121795019318 -1.1038694553206154 1.2474834923266074 -1.1038694553206154 1.1388547026512825 C -1.1038694553206154 1.0304176390993345 -1.193690305353083 0.9405972258006332 -1.3023190950284076 0.9405972258006332 C -1.4107559402134726 0.9405972258006332 -1.500384409021914 1.0304176390993345 -1.500384409021914 1.1388547026512825 C -1.500384409021914 1.2474834923266074 -1.4105639957232128 1.3371121795019318 -1.3021269321712647 1.3371121795019318 Z M -1.3021269321712647 1.2981511602162177 C -1.3904120079147713 1.2981511602162177 -1.4612318819797063 1.2271404334954383 -1.4612318819797063 1.1388547026512825 C -1.4612318819797063 1.0505696269077762 -1.3906039524050309 0.9797495344759579 -1.3023190950284076 0.9797495344759579 C -1.2140333641842518 0.9797495344759579 -1.1430226374634724 1.0505696269077762 -1.1428304746063298 1.1388547026512825 C -1.1428304746063298 1.2271404334954383 -1.213841201327109 1.2981511602162177 -1.3021269321712647 1.2981511602162177 Z M -1.3025112578855504 1.2672522462551787 C -1.2311140217816545 1.2672522462551787 -1.1737293885673687 1.2100575922292047 -1.1739215514245116 1.1386625397941397 C -1.1739215514245116 1.0674596502162177 -1.2313061846387972 1.0100737068006334 -1.3025112578855504 1.0100737068006334 C -1.3739063103206155 1.0100737068006334 -1.4309079280219141 1.0672674873590748 -1.4309079280219141 1.1386625397941397 C -1.4309079280219141 1.2100575922292047 -1.3737141474634726 1.2672522462551787 -1.3025112578855504 1.2672522462551787 Z" fill="#390c14" transform="matrix(1,0,0,1,0,0)" fill-rule="nonzero"></path></g></g><g transform="matrix(-0.08956241961613405,-0.9959812111643992,-0.9959812111643992,0.08956241961613405,5.512131116469723,5.038700790921801)"><g clip-path="url(&quot;#SvgjsClipPath1020&quot;)"><path d=" M 4.011091559473615 1.3371121795019318 C 4.119528186291797 1.3371121795019318 4.209349036324265 1.2474834923266074 4.209349036324265 1.1388547026512825 C 4.209349036324265 1.0304176390993345 4.119528186291797 0.9405972258006332 4.010899396616472 0.9405972258006332 C 3.9024625514314075 0.9405972258006332 3.812834082622966 1.0304176390993345 3.812834082622966 1.1388547026512825 C 3.812834082622966 1.2474834923266074 3.9026544959216674 1.3371121795019318 4.011091559473615 1.3371121795019318 Z M 4.011091559473615 1.2981511602162177 C 3.922806483730109 1.2981511602162177 3.851986609665174 1.2271404334954383 3.851986609665174 1.1388547026512825 C 3.851986609665174 1.0505696269077762 3.922614539239849 0.9797495344759579 4.010899396616472 0.9797495344759579 C 4.099185127460628 0.9797495344759579 4.170195854181408 1.0505696269077762 4.17038801703855 1.1388547026512825 C 4.17038801703855 1.2271404334954383 4.099377290317771 1.2981511602162177 4.011091559473615 1.2981511602162177 Z M 4.01070723375933 1.2672522462551787 C 4.082104469863226 1.2672522462551787 4.139489103077511 1.2100575922292047 4.139296940220369 1.1386625397941397 C 4.139296940220369 1.0674596502162177 4.081912307006083 1.0100737068006334 4.01070723375933 1.0100737068006334 C 3.9393121813242646 1.0100737068006334 3.882310563622966 1.0672674873590748 3.882310563622966 1.1386625397941397 C 3.882310563622966 1.2100575922292047 3.9395043441814077 1.2672522462551787 4.01070723375933 1.2672522462551787 Z" fill="#390c14" transform="matrix(1,0,0,1,0,0)" fill-rule="nonzero"></path></g></g></g><defs><clipPath id="SvgjsClipPath1018"><path d=" M 0 0 h 2.7089646273023504 v 2.637676084478604 h -2.7089646273023504 Z"></path></clipPath><clipPath id="SvgjsClipPath1008"><path d=" M 0 0 L 2.7089646273023504 0 L 2.7089646273023504 2.6376760844786045 L 0 2.6376760844786045 Z"></path></clipPath><clipPath id="SvgjsClipPath1019"><path d=" M -1.607840568534901 0.8406900094369969 h 0.6114272727272727 v 0.6114272727272727 h -0.6114272727272727 Z"></path></clipPath><clipPath id="SvgjsClipPath1020"><path d=" M 3.705377923109979 0.8406900094369969 h 0.6114272727272727 v 0.6114272727272727 h -0.6114272727272727 Z"></path></clipPath><linearGradient id="iconColor_0" x1="0" x2="1" y1="0" y2="1"><stop stop-color="#dca07d" offset="0"></stop><stop stop-color="#b5627d" offset="1"></stop></linearGradient><linearGradient id="iconColor_1" x1="0" x2="1" y1="0" y2="1"><stop stop-color="#d7997d" offset="0"></stop><stop stop-color="#b25d7d" offset="1"></stop></linearGradient><linearGradient id="iconColor_2" x1="0" x2="1" y1="0" y2="1"><stop stop-color="#d2907d" offset="0"></stop><stop stop-color="#af5a7d" offset="1"></stop></linearGradient><linearGradient id="iconColor_3" x1="0" x2="1" y1="0" y2="1"><stop stop-color="#cb857d" offset="0"></stop><stop stop-color="#af597d" offset="1"></stop></linearGradient><linearGradient id="iconColor_4" x1="0" x2="1" y1="0" y2="1"><stop stop-color="#c0757d" offset="0"></stop><stop stop-color="#b25d7e" offset="1"></stop></linearGradient><linearGradient id="iconColor_5" x1="0" x2="1" y1="0" y2="1"><stop stop-color="#f2c37c" offset="0"></stop><stop stop-color="#b8687d" offset="1"></stop></linearGradient></defs></svg>